<?xml version="1.0" standalone="no"?>
<!DOCTYPE svg PUBLIC "-//W3C//DTD SVG 20010904//EN"
 "http://www.w3.org/TR/2001/REC-SVG-20010904/DTD/svg10.dtd">
<svg version="1.0" xmlns="http://www.w3.org/2000/svg"
 width="230.000000pt" height="234.000000pt" viewBox="0 0 230.000000 234.000000"
 preserveAspectRatio="xMidYMid meet">

<g transform="translate(0.000000,234.000000) scale(0.100000,-0.100000)"
fill="#000000" stroke="none">
<path d="M1090 2154 c-235 -26 -417 -117 -548 -274 -100 -121 -162 -287 -162
-436 l0 -64 75 0 75 0 0 48 c1 177 145 391 320 475 308 147 674 47 836 -229
34 -57 71 -168 79 -236 l7 -58 69 0 69 0 0 84 c0 201 -131 435 -310 555 -138
91 -363 151 -510 135z"/>
<path d="M679 1407 c-19 -12 -44 -42 -57 -67 -22 -44 -23 -50 -20 -315 3 -309
7 -326 83 -370 77 -46 174 -26 223 45 22 32 22 38 22 329 0 278 -1 298 -20
329 -30 49 -75 72 -141 72 -42 0 -65 -6 -90 -23z m152 -77 c11 -6 19 -21 19
-35 0 -19 -6 -25 -33 -30 -56 -11 -92 -3 -95 21 -6 44 59 70 109 44z"/>
<path d="M1436 1407 c-74 -42 -76 -54 -76 -378 0 -280 0 -287 23 -319 36 -53
70 -73 134 -78 49 -3 64 0 93 20 19 13 45 39 57 57 23 33 23 39 23 319 0 271
-1 286 -21 322 -43 77 -152 104 -233 57z m128 -80 c12 -9 17 -23 14 -42 -3
-29 -6 -30 -56 -33 -78 -4 -105 25 -62 68 23 23 77 27 104 7z"/>
<path d="M430 1259 c-97 -43 -170 -148 -170 -244 0 -119 102 -238 234 -271
l26 -6 0 271 0 271 -22 -1 c-13 0 -43 -9 -68 -20z m5 -139 c4 -6 -1 -24 -9
-42 -20 -40 -20 -81 0 -119 16 -32 13 -59 -7 -59 -6 0 -26 15 -45 34 -26 26
-34 42 -34 70 0 44 21 89 52 110 26 19 35 20 43 6z"/>
<path d="M1780 1010 c0 -166 4 -270 10 -270 32 0 125 47 159 80 112 108 118
252 16 368 -40 46 -122 92 -162 92 l-23 0 0 -270z"/>
</g>
</svg>
