<?xml version="1.0" standalone="no"?>
<!DOCTYPE svg PUBLIC "-//W3C//DTD SVG 20010904//EN"
 "http://www.w3.org/TR/2001/REC-SVG-20010904/DTD/svg10.dtd">
<svg version="1.0" xmlns="http://www.w3.org/2000/svg"
 width="128.000000pt" height="123.000000pt" viewBox="0 0 128.000000 123.000000"
 preserveAspectRatio="xMidYMid meet">
<metadata>
Created by potrace 1.10, written by Peter Selinger 2001-2011
</metadata>
<g transform="translate(0.000000,123.000000) scale(0.100000,-0.100000)"
fill="#000000" stroke="none">
<path d="M629 1113 c0 -5 0 -29 1 -54 1 -42 -1 -48 -24 -55 -15 -5 -43 -31
-64 -58 -29 -39 -55 -58 -124 -93 -49 -24 -88 -48 -88 -53 0 -6 -11 -8 -24 -4
-18 4 -29 -2 -50 -27 -15 -17 -25 -36 -24 -41 2 -5 65 -9 143 -9 136 0 140 0
143 22 4 21 2 21 -87 17 -50 -2 -91 -2 -90 1 0 3 67 39 148 79 l148 73 144
-71 c79 -39 148 -75 152 -80 5 -4 -30 -5 -77 -3 -86 6 -86 6 -86 -18 l0 -24
140 0 c128 0 140 2 140 18 0 10 -11 29 -25 42 -25 26 -45 32 -45 15 0 -5 -4
-10 -10 -10 -5 0 -10 6 -10 13 0 7 -42 33 -92 58 -76 37 -100 55 -130 95 -21
27 -48 52 -61 57 -22 7 -23 12 -19 62 4 46 2 55 -12 55 -9 0 -16 -3 -17 -7z
m34 -147 c25 -19 21 -23 -23 -23 -39 0 -40 0 -24 18 20 22 23 23 47 5z"/>
<path d="M490 1091 c-178 -58 -297 -174 -357 -350 -27 -78 -31 -225 -9 -307
35 -131 142 -264 265 -327 249 -129 554 -52 702 176 60 93 83 174 83 292 0
148 -41 256 -134 358 -82 90 -194 154 -297 172 -43 7 -43 6 -43 -23 0 -28 3
-30 45 -36 75 -12 175 -69 242 -139 74 -77 107 -139 128 -245 25 -121 6 -226
-61 -340 -26 -44 -26 -44 -41 -22 -12 18 -17 19 -25 9 -8 -12 -10 -12 -15 -1
-6 16 -159 92 -182 92 -9 0 -39 25 -67 55 -77 83 -109 77 -192 -34 -13 -17
-28 -28 -34 -25 -17 11 -176 -69 -183 -91 -6 -19 -6 -19 -14 -1 -7 18 -8 18
-28 -3 l-21 -23 -43 87 c-36 76 -42 98 -47 174 -9 157 31 265 139 373 72 73
159 122 236 134 39 6 43 9 43 35 0 35 -11 36 -90 10z m232 -690 l68 -38 -22
-22 c-61 -67 -183 -68 -250 -4 l-28 27 68 37 c37 21 74 38 82 38 8 0 45 -17
82 -38z m126 -170 c-3 -87 -5 -96 -23 -99 -19 -3 -20 2 -17 90 4 109 6 120 27
112 13 -5 15 -23 13 -103z m-378 -1 c3 -52 5 -97 3 -98 -1 -2 -11 -1 -22 3
-19 6 -21 14 -21 101 0 86 2 95 18 92 14 -3 18 -18 22 -98z m-72 -31 l-3 -42
-52 42 c-29 23 -53 45 -53 49 0 4 24 19 53 34 l52 26 3 -34 c2 -18 2 -52 0
-75z m602 47 c0 -7 -102 -86 -111 -86 -5 0 -9 34 -9 75 l0 75 60 -30 c33 -17
60 -32 60 -34z m-450 -67 c0 -75 -1 -78 -20 -71 -18 7 -21 18 -23 94 l-3 86
23 -15 c21 -14 23 -23 23 -94z m223 20 c-2 -77 -9 -98 -35 -99 -13 0 -9 155 4
168 26 26 33 11 31 -69z m-148 -26 c1 -70 1 -73 -22 -73 -22 0 -23 3 -23 76 0
72 1 75 22 72 20 -3 22 -9 23 -75z m75 2 c0 -68 -2 -75 -20 -75 -18 0 -20 7
-20 75 0 68 2 75 20 75 18 0 20 -7 20 -75z"/>
<path d="M599 801 c-16 -16 -29 -34 -29 -40 0 -20 38 -12 43 9 3 12 14 20 25
20 31 0 35 -17 12 -40 -11 -11 -20 -31 -20 -44 0 -19 -7 -26 -28 -31 -19 -4
-40 -22 -61 -51 -26 -38 -48 -53 -125 -90 -52 -24 -96 -49 -99 -56 -4 -10 -7
-10 -15 1 -8 11 -15 9 -41 -10 -28 -20 -51 -63 -40 -73 4 -4 365 162 400 183
13 8 65 -13 217 -85 110 -52 205 -94 211 -94 22 0 10 38 -21 64 -37 31 -45 32
-51 9 -4 -16 -6 -16 -12 2 -4 13 -38 34 -98 60 -77 34 -96 47 -120 83 -17 25
-42 48 -58 54 -34 12 -37 30 -9 65 26 33 25 39 -5 68 -31 32 -40 31 -76 -4z
m70 -165 c9 -11 5 -15 -24 -18 -23 -3 -35 0 -35 8 0 24 42 31 59 10z"/>
</g>
</svg>
